<svg xmlns="http://www.w3.org/2000/svg" width="400" height="150">
    <rect x="0" y="50" width="100" height="100" fill="#850"></rect>
    <polygon points="0, 50 100, 50 100, 70 50, 100 0, 70" fill="#a80"></polygon>
    <line x1="0" y1="50" x2="100" y2="50" stroke-width="3" stroke="#650"></line>
    <ellipse cx="50" cy="50" rx="30" ry="25" fill="#a50" stroke-width="3" stroke="#840"></ellipse>
    <circle cx="35" cy="45" r="5" fill="#ff0" stroke-width="2" stroke="#bb0"></circle>
    <circle cx="65" cy="43" r="5" fill="#ff0" stroke-width="2" stroke="#bb0"></circle>
    <polygon points="35, 55 65, 53 60, 61 50, 66 40, 61" fill="#ff0" stroke-width="2" stroke="#bb0"></polygon>
    <rect x="45" y="20" rx="3" ry="3" width="10" height="15" fill="#430" stroke-width="3" stroke="#320"></rect>
    <rect x="100" y="50" width="100" height="100" fill="#850"></rect>
    <polygon points="100, 50 200, 50 200, 70 150, 100 100, 70" fill="#a80"></polygon>
    <line x1="100" y1="50" x2="200" y2="50" stroke-width="3" stroke="#650"></line>
    <ellipse cx="150" cy="50" rx="30" ry="25" fill="#a50" stroke-width="3" stroke="#840"></ellipse>
    <circle cx="135" cy="43" r="5" fill="#ff0" stroke-width="2" stroke="#bb0"></circle>
    <circle cx="165" cy="45" r="5" fill="#ff0" stroke-width="2" stroke="#bb0"></circle>
    <polygon points="135, 53 165, 55 160, 61 150, 66 140, 61" fill="#ff0" stroke-width="2" stroke="#bb0"></polygon>
    <rect x="145" y="20" rx="3" ry="3" width="10" height="15" fill="#430" stroke-width="3" stroke="#320"></rect>
    <rect x="200" y="50" width="100" height="100" fill="#850"></rect>
    <polygon points="200, 50 300, 50 300, 70 250, 100 200, 70" fill="#a80"></polygon>
    <line x1="200" y1="50" x2="300" y2="50" stroke-width="3" stroke="#650"></line>
    <ellipse cx="250" cy="50" rx="25" ry="23" fill="#777" stroke-width="3" stroke="#555"></ellipse>
    <ellipse cx="260" cy="65" rx="15" ry="15" fill="#777"></ellipse>
    <circle cx="240" cy="50" r="7" fill="#fff" stroke-width="2" stroke="#bbb"></circle>
    <circle cx="260" cy="43" r="7" fill="#fff" stroke-width="2" stroke="#bbb"></circle>
    <polygon points="245, 62 265, 55 267, 65 257, 69" fill="#fff" stroke-width="2" stroke="#bbb"></polygon>
    <rect x="300" y="50" width="100" height="100" fill="#850"></rect>
    <polygon points="300, 50 400, 50 400, 70 350, 100 300, 70" fill="#a80"></polygon>
    <line x1="300" y1="50" x2="400" y2="50" stroke-width="3" stroke="#650"></line>
    <rect x="325" y="25" width="50" height="40" fill="#555"></rect>
    <circle cx="350" cy="25" r="25" fill="#555"></circle>
    <rect x="330" y="22" width="40" height="5" fill="#fff" stroke-width="1" stroke="#bbb"></rect>
    <rect x="335" y="37" width="30" height="5" fill="#fff" stroke-width="1" stroke="#bbb"></rect>
    <rect x="332" y="52" width="36" height="5" fill="#fff" stroke-width="1" stroke="#bbb"></rect>
</svg>
